<svg xmlns="http://www.w3.org/2000/svg" viewBox="0 0 287.81332 90">
    <g transform="matrix(1.3333333,0,0,-1.3333333,0,102.84733)">
        <g transform="translate(152.1056,54.6525)">
            <path d="m 0,0 c -1.645,0 -2.888,-1.269 -2.888,-2.864 0,-1.594 1.243,-2.899 2.888,-2.899 1.645,0 2.925,1.305 2.925,2.899 C 2.925,-1.269 1.645,0 0,0 m -4.875,-10.048 c -2.181,0 -3.767,-0.78 -4.679,-1.6 v 7.411 c 0,0.451 -0.396,0.903 -0.872,0.903 h -3.212 c -0.437,0 -0.873,-0.452 -0.873,-0.903 v -24.27 c 0,-0.493 0.436,-0.903 0.873,-0.903 h 3.132 c 0.714,0 0.952,0.369 0.952,0.903 v 10.46 c 0.476,1.927 1.665,3.322 3.807,3.322 2.181,0 3.331,-1.6 3.331,-4.225 v -9.557 c 0,-0.493 0.396,-0.903 0.872,-0.903 h 3.212 c 0.436,0 0.872,0.41 0.872,0.903 v 9.516 c 0,4.759 -1.585,8.943 -7.415,8.943 m -31.343,0.082 c -3.206,0 -4.862,-1.617 -4.862,-1.617 l -0.016,0.321 c 0,0.472 -0.404,0.852 -0.841,0.852 l -3.141,0.041 c -0.437,0 -0.874,-0.361 -0.874,-0.884 v -16.812 c 0,-0.482 0.437,-0.885 0.874,-0.885 h 2.94 c 0.874,0 1.152,0.202 1.152,0.885 v 10.618 c 0.437,1.287 1.59,2.896 3.973,2.896 2.225,0 3.179,-1.489 3.179,-3.902 v -9.612 c 0,-0.482 0.397,-0.885 0.874,-0.885 h 3.218 c 0.437,0 0.874,0.403 0.874,0.885 v 9.612 c 0,4.505 -1.509,8.487 -7.35,8.487 m 73.156,-0.866 h -4.292 v 6.62 c 0,0.475 -0.357,0.871 -0.834,0.871 h -3.258 c -0.437,0 -0.873,-0.396 -0.873,-0.871 v -6.62 h -1.789 c -0.476,0 -0.834,-0.356 -0.834,-0.872 v -2.694 c 0,-0.435 0.358,-0.872 0.834,-0.872 0,0 1.719,-0.439 1.719,-0.443 v -7.938 c 0,-3.17 1.718,-5.773 5.81,-5.773 1.908,0 1.449,-0.009 2.18,0 0.722,0 1.571,0.967 1.452,1.443 v 1.443 c 0,0.517 -0.62,1.444 -1.452,1.444 h -1.453 c -0.964,0 -1.453,0.931 -1.453,1.443 l -0.049,8.381 h 4.292 c 0.476,0 0.874,0.437 0.874,0.872 v 2.694 c 0,0.516 -0.398,0.872 -0.874,0.872 m -21.175,0.166 c -3.27,0 -4.958,-1.596 -4.958,-1.596 l -0.017,0.317 c 0,0.466 -0.413,0.841 -0.858,0.841 l -3.204,0.041 c -0.446,0 -0.892,-0.357 -0.892,-0.874 v -16.611 c 0,-0.478 0.446,-0.874 0.892,-0.874 h 2.999 c 0.891,0 1.175,0.198 1.175,0.874 v 10.491 c 0.446,1.271 1.621,2.861 4.052,2.861 2.269,0 3.242,-1.471 3.242,-3.854 v -9.498 c 0,-0.478 0.406,-0.874 0.892,-0.874 h 3.282 c 0.445,0 0.892,0.396 0.892,0.874 v 9.498 c 0,4.45 -1.541,8.384 -7.497,8.384 m -76.281,-6.661 c 0.239,1.851 1.669,3.218 3.894,3.218 2.027,0 3.457,-1.407 3.537,-3.218 z m 4.014,7.361 c -1.892,0 -3.587,-0.54 -4.994,-1.463 -2.64,-1.733 -3.841,-4.927 -3.841,-8.338 0,-3.415 1.155,-6.356 3.741,-8.097 1.434,-0.965 3.178,-1.527 5.133,-1.527 2.98,0 5.245,1.166 6.834,2.533 0.438,0.402 0.397,0.845 0.079,1.207 l -1.549,2.091 c -0.278,0.402 -0.754,0.362 -1.192,0 -0.834,-0.684 -2.105,-1.367 -3.934,-1.367 -2.661,0 -4.529,2.01 -4.568,4.302 h 11.76 c 0.397,0 0.834,0.363 0.874,0.845 0.04,0.281 0.079,0.925 0.079,1.207 0,5.027 -3.655,8.607 -8.422,8.607 m -55.951,10.101 c -1.645,0 -2.888,-1.269 -2.888,-2.863 0,-1.595 1.243,-2.899 2.888,-2.899 1.645,0 2.925,1.304 2.925,2.899 0,1.594 -1.28,2.863 -2.925,2.863 m 39.999,-22.37 c -0.412,-1.047 -1.731,-2.577 -4.203,-2.577 -2.967,0 -4.492,2.536 -4.492,5.154 0,2.617 1.607,5.114 4.739,5.114 2.391,0 3.956,-1.047 3.956,-1.047 z m 4.245,18.887 h -3.338 c -0.453,0 -0.907,-0.444 -0.907,-0.886 v -6.485 c -0.865,0.322 -2.678,0.765 -4.574,0.765 -5.687,0 -9.437,-4.268 -9.437,-9.704 0,-5.637 3.914,-9.744 9.107,-9.744 2.818,0 4.776,1.416 4.776,1.416 h 0.29 l -0.091,-0.088 c 0.165,-0.523 0.453,-0.885 0.906,-0.885 h 3.268 c 0.495,0 0.907,0.402 0.907,0.885 v 23.84 c 0,0.442 -0.412,0.886 -0.907,0.886 m -25.554,-18.887 c -0.413,-1.047 -1.734,-2.577 -4.211,-2.577 -2.972,0 -4.5,2.536 -4.5,5.154 0,2.617 1.61,5.114 4.748,5.114 2.395,0 3.963,-1.047 3.963,-1.047 z m 4.253,18.887 h -3.344 c -0.455,0 -0.909,-0.444 -0.909,-0.886 v -6.485 c -0.866,0.322 -2.683,0.765 -4.582,0.765 -5.697,0 -9.455,-4.268 -9.455,-9.704 0,-5.637 3.922,-9.744 9.125,-9.744 2.822,0 4.783,1.416 4.783,1.416 h 0.291 l -0.091,-0.088 c 0.165,-0.523 0.454,-0.885 0.908,-0.885 h 3.274 c 0.495,0 0.908,0.402 0.908,0.885 v 23.84 c 0,0.442 -0.413,0.886 -0.908,0.886 m -27.818,-6.7 c -2.181,0 -3.767,-0.78 -4.679,-1.6 v 7.411 c 0,0.451 -0.396,0.903 -0.872,0.903 h -3.212 c -0.436,0 -0.872,-0.452 -0.872,-0.903 v -24.27 c 0,-0.493 0.436,-0.903 0.872,-0.903 h 3.133 c 0.713,0 0.951,0.369 0.951,0.903 v 10.46 c 0.476,1.927 1.666,3.322 3.807,3.322 2.181,0 3.331,-1.6 3.331,-4.225 v -9.557 c 0,-0.493 0.397,-0.903 0.872,-0.903 h 3.212 c 0.436,0 0.872,0.41 0.872,0.903 v 9.516 c 0,4.759 -1.585,8.943 -7.415,8.943"/>
        </g>
    </g>
</svg>
